<?xml version="1.0" encoding="utf-8"?>
<!-- Generator: Adobe Illustrator 24.0.1, SVG Export Plug-In . SVG Version: 6.00 Build 0)  -->
<svg version="1.1" id="Layer_1" xmlns="http://www.w3.org/2000/svg" xmlns:xlink="http://www.w3.org/1999/xlink" x="0px" y="0px"
	 width="20px" height="20px" viewBox="0 0 20 20" style="enable-background:new 0 0 20 20;" xml:space="preserve">
<style type="text/css">
	.st0{fill:#EFB20F;}
</style>
<g>
	<path class="st0" d="M19.2,5.8c-1.5-1.6-3.1-3.1-4.7-4.7c-0.2-0.2-0.6-0.6-1.1-0.6l-1.5,0c-0.8,0-1.6,0-2.4,0c0,0,0,0,0,0H7
		c0.1,0-0.1,0.1,0,0C6.9,0.6,6.8,0.6,6.7,0.6c-0.1,0-0.2,0-0.3,0C6,0.6,5.7,0.8,5.4,1.1C4,2.6,2.5,4.1,1,5.5
		C0.6,5.8,0.4,6.2,0.5,6.6c0,0,0,0.1,0,0.1v2.8c0,0.8,0,1.6,0,2.4v1.7l0,0c0,0.8,0.4,0.8,0.5,0.9c1.6,1.6,3.2,3.2,4.8,4.8
		c0.1,0.1,0.1,0.1,0.1,0.2c2.7,0,5.5,0,8.2,0c0.1-0.1,0.2-0.2,0.3-0.3c1.6-1.6,3.2-3.2,4.9-4.9c0.1-0.1,0.2-0.4,0.2-0.6
		c0-2.5,0-4.9,0-7.4C19.5,6.1,19.4,5.9,19.2,5.8z M17.1,12.8c0,0.2-0.1,0.4-0.2,0.5c-1.2,1.2-2.4,2.4-3.6,3.6
		c-0.1,0.1-0.4,0.2-0.6,0.2c-0.9,0-1.8,0-2.7,0c-0.9,0-1.8,0-2.7,0c-0.2,0-0.4-0.1-0.6-0.2c-1.2-1.2-2.4-2.4-3.6-3.6
		C3,13.2,2.9,13,2.9,12.8c0-1.8,0-3.7,0-5.5c0-0.2,0.1-0.4,0.2-0.5c1.2-1.2,2.4-2.4,3.6-3.6C6.9,3,7.1,2.9,7.2,2.9
		c1.8,0,3.7,0,5.5,0c0.2,0,0.4,0.1,0.5,0.2c1.2,1.2,2.4,2.4,3.6,3.6c0.1,0.1,0.2,0.4,0.2,0.5C17.1,9.1,17.1,10.9,17.1,12.8z"/>
	<path class="st0" d="M8.8,10c0.8,0,1.6,0,2.3,0c0-1.6,0-3.1,0-4.7c-0.8,0-1.6,0-2.3,0C8.8,6.9,8.8,8.4,8.8,10z"/>
	<path class="st0" d="M8.8,14.7c0.8,0,1.6,0,2.3,0c0-0.8,0-1.6,0-2.3c-0.8,0-1.5,0-2.3,0C8.8,13.2,8.8,14,8.8,14.7z"/>
</g>
</svg>
