<?xml version="1.0" encoding="utf-8"?>
<!-- Generator: Adobe Illustrator 24.0.1, SVG Export Plug-In . SVG Version: 6.00 Build 0)  -->
<svg version="1.1" id="Layer_1" xmlns="http://www.w3.org/2000/svg" xmlns:xlink="http://www.w3.org/1999/xlink" x="0px" y="0px"
	 width="20px" height="20px" viewBox="0 0 20 20" style="enable-background:new 0 0 20 20;" xml:space="preserve">
<style type="text/css">
	.st0{fill:#1A9D38;}
</style>
<path class="st0" d="M10,19.5c-5.2,0-9.5-4.3-9.5-9.5c0-5.2,4.3-9.5,9.5-9.5c5.3,0,9.5,4.3,9.5,9.5C19.5,15.2,15.2,19.5,10,19.5
	L10,19.5z M10,2.6c-4.1,0-7.4,3.3-7.4,7.4c0,4.1,3.3,7.4,7.4,7.5c4.1,0,7.4-3.3,7.5-7.4C17.4,5.9,14.1,2.6,10,2.6V2.4V2.6z"/>
<path class="st0" d="M9.1,13.1c-0.3,0-0.6-0.2-0.9-0.5c0,0-1.7-1.7-2.3-2.3c-0.2-0.3-0.4-0.5-0.4-0.8c0-0.3,0.1-0.5,0.3-0.7
	C6,8.6,6.3,8.5,6.5,8.5c0.3,0,0.6,0.1,0.8,0.4c0.4,0.4,0.9,0.9,1.3,1.3l0.5,0.5c0.5-0.4,1.1-1.1,1.7-1.6c0.6-0.6,1.3-1.2,1.7-1.6
	c0.3-0.3,0.7-0.5,1-0.5c0.3,0,0.5,0.1,0.7,0.3c0.4,0.5,0.4,1.1-0.2,1.7c-0.5,0.5-1.3,1.2-2,2c-0.7,0.7-1.4,1.4-1.9,1.9
	C9.7,13,9.4,13.1,9.1,13.1z"/>
</svg>
