<?xml version="1.0" encoding="utf-8"?>
<!-- Generator: Adobe Illustrator 24.0.1, SVG Export Plug-In . SVG Version: 6.00 Build 0)  -->
<svg version="1.1" id="Layer_1" xmlns="http://www.w3.org/2000/svg" xmlns:xlink="http://www.w3.org/1999/xlink" x="0px" y="0px"
	 width="64px" height="64px" viewBox="0 0 64 64" style="enable-background:new 0 0 64 64;" xml:space="preserve">
<rect style="fill:none;" width="64" height="64"/>
<path d="M31.3,62c-1.5-0.3-2.7-1.2-3.8-2.2c-0.9-0.8-1.7-1.6-2.6-2.3c-0.2-0.2-0.5-0.3-0.8-0.3
	c-2,0.1-3.9,0.3-5.9,0.4c-3.3,0.3-5.4-1.2-6.2-4.4c-0.4-1.6-0.8-3.1-1.1-4.7c-0.1-0.4-0.3-0.7-0.7-0.9c-1.8-1-3.6-2.1-5.3-3.2
	c-2.6-1.5-3.4-4.1-2.3-6.9c0.7-1.7,1.4-3.4,2.1-5.1c0.1-0.3,0.1-0.7,0-0.9c-0.7-1.7-1.4-3.4-2.1-5.1c-1.2-2.8-0.3-5.4,2.3-6.9
	c1.6-1,3.3-1.9,4.9-2.9c0.2-0.1,0.5-0.4,0.5-0.7c0.6-1.9,1.2-3.9,1.8-5.8c0.8-2.5,2.9-4,5.6-3.8c2.1,0.2,4.2,0.3,6.2,0.5
	c0.4,0,0.8,0,1.1-0.4c1.1-1,2.2-2,3.4-3c2.2-1.9,5-1.9,7.2,0c1.1,1,2.2,1.9,3.3,3c0.4,0.3,0.7,0.4,1.2,0.4c2.1-0.2,4.1-0.3,6.2-0.5
	c2.7-0.2,4.9,1.3,5.6,4c0.4,1.7,0.8,3.5,1.3,5.2c0.1,0.3,0.3,0.6,0.6,0.8c1.7,1.1,3.5,2.1,5.3,3.2c1.5,0.9,2.5,2.1,2.8,3.8
	c0,0.1,0.1,0.1,0.1,0.2c0,0.5,0,1,0,1.5c-0.2,0.5-0.3,1-0.5,1.5c-0.7,1.7-1.4,3.3-2,5c-0.1,0.3-0.1,0.6,0,0.9
	c0.8,2.2,1.7,4.4,2.6,6.6c0,0.5,0,1,0,1.5c0,0-0.1,0.1-0.1,0.1c-0.3,1.7-1.3,2.9-2.7,3.8c-1.8,1.1-3.6,2.1-5.4,3.3
	c-0.2,0.2-0.5,0.5-0.5,0.7c-0.4,1.6-0.8,3.2-1.2,4.8c-0.8,3.2-2.9,4.7-6.2,4.4c-2-0.2-3.9-0.3-5.9-0.4c-0.3,0-0.6,0.1-0.9,0.3
	c-0.9,0.7-1.8,1.5-2.6,2.3c-1.1,1-2.3,1.9-3.8,2.2C32.2,62,31.8,62,31.3,62z M46.5,54.1c1.2,0,1.8-0.4,2.1-1.6
	c0.5-1.9,1-3.9,1.4-5.8c0.2-0.7,0.5-1.2,1.2-1.6c2.1-1.2,4.1-2.4,6.1-3.7c1.2-0.7,1.4-1.4,0.9-2.7c-0.8-1.9-1.6-3.9-2.4-5.8
	c-0.3-0.7-0.3-1.3,0-2c0.8-1.9,1.6-3.8,2.4-5.7c0.6-1.4,0.3-2-0.9-2.8c-2-1.2-4.1-2.5-6.1-3.7c-0.6-0.4-0.9-0.8-1.1-1.5
	c-0.5-2-0.9-3.9-1.4-5.9c-0.3-1.1-1-1.6-2-1.6c-2.5,0.2-4.9,0.4-7.4,0.6c-0.6,0.1-1.2-0.1-1.7-0.5c-1.4-1.2-2.7-2.4-4.1-3.6
	c-1-0.9-1.8-0.9-2.8,0c-1.4,1.2-2.8,2.5-4.2,3.7c-0.4,0.4-0.9,0.6-1.5,0.5c-2.5-0.2-4.9-0.4-7.4-0.6c-1.2-0.1-1.8,0.3-2.2,1.5
	c-0.7,2.1-1.3,4.2-2,6.4c-0.2,0.7-0.6,1.2-1.2,1.5c-1.8,1.1-3.6,2.1-5.4,3.2c-1.2,0.7-1.5,1.4-0.9,2.7c0.8,1.9,1.6,3.8,2.4,5.7
	c0.3,0.7,0.3,1.4,0,2.1c-0.8,1.9-1.6,3.9-2.4,5.8c-0.5,1.3-0.3,2,0.9,2.7c2,1.2,4.1,2.4,6.1,3.6c0.6,0.4,1,0.9,1.1,1.5
	c0.4,1.9,0.9,3.8,1.4,5.6c0.4,1.6,0.9,1.9,2.5,1.8c2.2-0.2,4.5-0.3,6.7-0.5c0.8-0.1,1.4,0.1,1.9,0.6c1.4,1.2,2.8,2.5,4.2,3.7
	c0.9,0.8,1.7,0.8,2.7,0c1.3-1.2,2.7-2.3,4-3.5c0.7-0.6,1.4-0.8,2.3-0.8C41.9,53.8,44.2,54,46.5,54.1z"/>
<g>
	<path d="M32,12.7c-10.7,0-19.3,8.7-19.3,19.4c0,10.6,8.7,19.3,19.3,19.3c10.7,0,19.3-8.7,19.3-19.3
		C51.3,21.4,42.6,12.7,32,12.7z M41.9,27c-3.4,3.4-6.9,6.9-10.3,10.3c-0.8,0.8-1.8,0.8-2.7,0c-2.3-2.3-4.5-4.5-6.8-6.8
		c-0.8-0.8-0.9-1.9-0.1-2.6c0.7-0.7,1.8-0.7,2.6,0.1c1.7,1.7,3.5,3.4,5.2,5.2c0.1,0.1,0.3,0.3,0.5,0.5c2.2-2.2,4.4-4.4,6.6-6.6
		c0.8-0.8,1.7-1.7,2.5-2.5c0.8-0.8,1.9-0.8,2.6-0.1C42.8,25.1,42.7,26.2,41.9,27z"/>
</g>
</svg>
