<?xml version="1.0" encoding="utf-8"?>
<!-- Generator: Adobe Illustrator 24.0.1, SVG Export Plug-In . SVG Version: 6.00 Build 0)  -->
<svg version="1.1" id="Layer_1" xmlns="http://www.w3.org/2000/svg" xmlns:xlink="http://www.w3.org/1999/xlink" x="0px" y="0px"
	 width="64px" height="64px" viewBox="0 0 64 64" style="enable-background:new 0 0 64 64;" xml:space="preserve">
<rect style="fill:none;" width="64" height="64"/>
<g>
	<path d="M44.1,47.6c-0.3,0-0.6-0.1-0.8-0.3l-4.8-4.8c-0.5-0.5-0.5-1.2,0-1.6c0.2-0.2,0.5-0.3,0.8-0.3
		c0.3,0,0.6,0.1,0.8,0.3l3.1,3.2l-0.4-3.7c-0.1-1.1-0.4-2.2-0.9-3.2c-1.7-3.9-5.6-6.5-9.9-6.5c-1.5,0-3,0.3-4.4,0.9
		c-0.1,0.1-0.3,0.1-0.4,0.1c-0.5,0-0.9-0.3-1.1-0.7c-0.1-0.3-0.1-0.6,0-0.9c0.1-0.3,0.3-0.5,0.6-0.6c1.7-0.7,3.4-1.1,5.2-1.1
		c7.1,0,12.8,5.4,13.3,12.3l0.2,2.8l2.7-2.8c0.2-0.2,0.5-0.3,0.8-0.3s0.6,0.1,0.8,0.3c0.5,0.5,0.5,1.2,0,1.6L45,47.2
		C44.7,47.5,44.4,47.6,44.1,47.6z"/>
	<path d="M32,54.8c-6.9,0-12.7-5.4-13.1-12.3l-0.2-2.8L16,42.5c-0.2,0.2-0.5,0.3-0.8,0.3
		c-0.3,0-0.6-0.1-0.8-0.3c-0.2-0.2-0.3-0.5-0.3-0.8c0-0.3,0.1-0.6,0.3-0.8l4.8-4.8c0.2-0.2,0.5-0.3,0.8-0.3s0.6,0.1,0.8,0.3l4.8,4.8
		c0.2,0.2,0.3,0.5,0.3,0.8c0,0.3-0.1,0.6-0.3,0.8c-0.2,0.2-0.5,0.3-0.8,0.3c-0.3,0-0.6-0.1-0.8-0.3l-3.1-3.3l0.4,3.7
		c0.1,1,0.4,2.1,0.8,3c1.7,4,5.6,6.6,10,6.6c1.5,0,2.9-0.3,4.3-0.9c0.2-0.1,0.3-0.1,0.5-0.1c0.5,0,0.9,0.3,1.1,0.7
		c0.3,0.6,0,1.3-0.6,1.5C35.6,54.4,33.8,54.8,32,54.8L32,54.8z"/>
	<path d="M5.6,62c-0.6,0-1.2-0.5-1.2-1.2V8c0-0.6,0.5-1.2,1.2-1.2h13.3V3.2C18.8,2.5,19.3,2,20,2
		c0.6,0,1.2,0.5,1.2,1.2v3.7h21.7V3.2C42.9,2.5,43.4,2,44,2c0.6,0,1.2,0.5,1.2,1.2v3.7h13.3c0.6,0,1.2,0.5,1.2,1.2v52.9
		c0,0.6-0.5,1.2-1.2,1.2H5.6z M6.7,59.7h50.6V23.5H6.7V59.7z M16.3,12.8c0,2,1.6,3.7,3.7,3.7s3.7-1.6,3.7-3.7V8.9h-7.3V12.8z
		 M40.4,12.7c0,2,1.6,3.7,3.7,3.7s3.7-1.6,3.7-3.7V8.9h-7.3V12.7z"/>
</g>
</svg>
