<svg id="Layer_1" data-name="Layer 1" xmlns="http://www.w3.org/2000/svg" viewBox="0 0 32 32"><title>iconfinder_beaker_lab_research_chemistry_3005772</title><path d="M19.36,19.9H12.64a9.49,9.49,0,0,0-9.48,9.48v1.06a.91.91,0,0,0,.91.91H27.93a.91.91,0,0,0,.91-.91V29.38A9.49,9.49,0,0,0,19.36,19.9Zm-4.27,9.63H5v-.15a7.68,7.68,0,0,1,7.67-7.66h2.45Zm11.94,0H16.91V21.72h2.45A7.68,7.68,0,0,1,27,29.38Z"/><path d="M22.76,23.21H19.13a.91.91,0,0,0-.91.91v2.42a.91.91,0,0,0,.28.66l1.82,1.74a1,1,0,0,0,.63.25,1,1,0,0,0,.63-.25l1.81-1.74a.91.91,0,0,0,.28-.66V24.12A.91.91,0,0,0,22.76,23.21Zm-.9,2.95L21,27,20,26.16V25h1.82Z"/><path d="M8.22,7.36c.18.77.37,1.54.55,2.32A.8.8,0,0,0,9,10H9l0,0,0,0a7.24,7.24,0,0,0,.73.62A7,7,0,0,0,9.61,12a6.39,6.39,0,0,0,12.78,0,7,7,0,0,0-.13-1.31A6.91,6.91,0,0,0,23,10.1a.7.7,0,0,0,.22-.31v0h0c0-.06.35-1.48.5-2.12s.51-1.47.19-2a8.28,8.28,0,0,0-1.1-1.4,10.72,10.72,0,0,0-2.44-2,8.46,8.46,0,0,0-7.95-.41,10.56,10.56,0,0,0-4.2,3.67A1.08,1.08,0,0,0,8,6.38C8.06,6.71,8.15,7,8.22,7.36ZM16,16.59A4.58,4.58,0,0,1,11.43,12c0-.12,0-.25,0-.37a12.16,12.16,0,0,0,4.56.78,12.12,12.12,0,0,0,4.56-.78c0,.12,0,.25,0,.37A4.58,4.58,0,0,1,16,16.59Zm0-6a8.9,8.9,0,0,1-4.9-1.19A9,9,0,0,1,16,8.25a9,9,0,0,1,4.9,1.18A8.9,8.9,0,0,1,16,10.62Zm0-7.83a7.52,7.52,0,0,1,6.16,3.5L21.8,7.85A10.81,10.81,0,0,0,16,6.43a10.81,10.81,0,0,0-5.8,1.42L9.84,6.29A7.5,7.5,0,0,1,16,2.79Z"/><path d="M16,5.62a.91.91,0,1,0-.91-.91A.92.92,0,0,0,16,5.62Z"/></svg>