<?xml version="1.0" ?><!DOCTYPE svg  PUBLIC '-//W3C//DTD SVG 1.1//EN'  'http://www.w3.org/Graphics/SVG/1.1/DTD/svg11.dtd'><svg enable-background="new 0 0 520 520" height="520px" id="Layer_1" version="1.1" viewBox="0 0 520 520" width="520px" xml:space="preserve" xmlns="http://www.w3.org/2000/svg" xmlns:xlink="http://www.w3.org/1999/xlink"><g><path d="M324.204,210.394l11.934-14.976l-19.188-28.08h84.474v26.676h0.937v14.742c0,1.719-0.081,3.474-0.234,5.265   c-0.157,1.795-0.392,3.55-0.702,5.265c-1.562,7.645-5.305,13.652-11.231,18.018c-5.931,4.369-12.56,6.709-19.891,7.02h33.696   l-79.092,103.662v-58.969l-43.524,57.096l0.234-0.233c-0.937,1.251-1.562,2.106-1.872,2.574h40.248v24.804   c0,1.719-0.432,3.434-1.287,5.148c-0.859,1.719-1.952,3.275-3.276,4.68c-1.327,1.404-2.848,2.574-4.563,3.51   c-1.719,0.937-3.356,1.404-4.914,1.404H222.18c-1.562,0-3.159-0.388-4.797-1.17c-1.638-0.779-3.159-1.832-4.563-3.159   c-1.404-1.323-2.537-2.768-3.393-4.329c-0.859-1.557-1.287-3.195-1.287-4.914v-17.55h-15.678c-1.404,0-2.965-0.351-4.68-1.053   c-1.719-0.702-3.356-1.675-4.914-2.925c-1.562-1.247-2.889-2.611-3.978-4.096c-1.093-1.48-1.638-3.078-1.638-4.797v-87.282   c0-1.09,0.468-2.34,1.404-3.744c0.936-1.404,2.066-2.728,3.393-3.978c1.324-1.247,2.728-2.34,4.212-3.276   c1.48-0.936,2.844-1.404,4.095-1.404h25.974v104.13h37.44c-3.276-2.808-4.914-7.097-4.914-12.87v-3.744   c0.311-0.468,0.779-1.48,1.404-3.042c0.622-1.558,1.247-2.728,1.872-3.51l56.395-72.774c1.715-2.494,4.212-4.483,7.487-5.967   c3.276-1.48,6.396-2.223,9.36-2.223h42.588c-8.892-0.311-15.718-2.845-20.475-7.605c-4.761-4.756-8.153-11.191-10.18-19.305   h-13.104V210.394z M211.884,248.77h-21.528c-0.782,0-1.678,0.274-2.691,0.819c-1.017,0.548-1.953,1.25-2.808,2.106   c-0.859,0.859-1.602,1.755-2.223,2.691c-0.625,0.936-0.936,1.718-0.936,2.34v87.282c0,1.094,0.387,2.105,1.17,3.042   c0.779,0.937,1.715,1.796,2.808,2.574c1.09,0.782,2.26,1.403,3.51,1.872c1.247,0.468,2.34,0.702,3.276,0.702h19.422V248.77z    M212.586,352.9v21.527c0,2.187,1.053,4.252,3.159,6.201c2.106,1.953,4.249,2.926,6.435,2.926h83.772   c2.183,0,4.329-1.171,6.435-3.511c2.106-2.34,3.159-4.6,3.159-6.786V352.9H212.586z M253.536,335.584   c0,4.369,1.287,7.686,3.861,9.945c2.574,2.263,5.886,3.393,9.945,3.393c2.494,0,4.482-0.387,5.967-1.17   c1.481-0.779,3.002-2.26,4.563-4.445l49.374-65.053l2.105-1.638v58.266l65.755-86.112h-69.732c-2.34,0-4.797,0.625-7.371,1.872   c-2.574,1.25-4.486,2.731-5.733,4.446l-56.627,73.008c-0.314,0.314-0.702,1.053-1.17,2.223c-0.468,1.17-0.783,1.913-0.936,2.224   v0.468v1.872V335.584z M338.946,191.908h57.798v-20.124h-71.37L338.946,191.908z M397.914,348.221v-5.851h-61.776l70.902-95.004   c0.936-0.936,1.715-1.675,2.34-2.223c0.622-0.545,1.48-0.819,2.574-0.819h1.17c2.34,0,4.757,0.585,7.254,1.755   c2.493,1.17,4.797,2.691,6.903,4.563c2.105,1.872,3.82,3.978,5.147,6.318c1.324,2.34,1.989,4.681,1.989,7.021V388H325.374v-39.779   H397.914z M328.65,212.968h12.401c0.153,0,0.271,0.234,0.352,0.702c0.076,0.468,0.116,0.859,0.116,1.17   c1.715,7.803,4.717,13.923,9.01,18.369c4.288,4.446,10.566,6.669,18.837,6.669c6.552,0,12.438-1.949,17.667-5.85   c5.225-3.897,8.46-9.126,9.711-15.678c0.311-1.715,0.545-3.393,0.702-5.031c0.153-1.638,0.233-3.159,0.233-4.563V198.46h-58.266   l-10.764,13.572V212.968z M329.82,352.666v30.889h99.918V263.98c0-1.873-0.509-3.704-1.521-5.5   c-1.017-1.792-2.34-3.393-3.978-4.797c-1.639-1.404-3.434-2.574-5.382-3.51c-1.953-0.936-3.861-1.404-5.733-1.404h-1.17   c-0.157,0-0.625,0.391-1.404,1.17l-65.52,87.984h57.33v14.742H329.82z"/></g></svg>