<?xml version="1.0" encoding="utf-8"?>
<!-- Generator: Adobe Illustrator 24.0.1, SVG Export Plug-In . SVG Version: 6.00 Build 0)  -->
<svg version="1.1" id="Layer_1" xmlns="http://www.w3.org/2000/svg" xmlns:xlink="http://www.w3.org/1999/xlink" x="0px" y="0px"
	 width="64px" height="64px" viewBox="0 0 64 64" style="enable-background:new 0 0 64 64;" xml:space="preserve">
<rect style="fill:none;" width="64" height="64"/>
<g transform="translate(0,-952.36216)">
	<path style="fill-rule:evenodd;clip-rule:evenodd;" d="M2,954.4v60h60v-60H2z M12,957.2h4.4v19.7l6.7-8.8l6.7,8.8
		v-19.7h29.3v54.3H12V957.2z"/>
	<path style="fill-rule:evenodd;clip-rule:evenodd;" d="M18.3,983.1v2.1H54v-2.1H18.3z"/>
	<path style="fill-rule:evenodd;clip-rule:evenodd;" d="M18.3,992v2.1H54V992H18.3z"/>
	<path style="fill-rule:evenodd;clip-rule:evenodd;" d="M18.3,1001v2.1H54v-2.1H18.3z"/>
	<path style="fill-rule:evenodd;clip-rule:evenodd;" d="M36.1,965.2v2.1H54v-2.1C54,965.2,36.1,965.2,36.1,965.2z"/>
	<path style="fill-rule:evenodd;clip-rule:evenodd;" d="M36.1,974.1v2.1H54v-2.1C54,974.1,36.1,974.1,36.1,974.1z"/>
</g>
</svg>
