<?xml version="1.0" encoding="utf-8"?>
<!-- Generator: Adobe Illustrator 24.0.1, SVG Export Plug-In . SVG Version: 6.00 Build 0)  -->
<svg version="1.1" id="Layer_1" xmlns="http://www.w3.org/2000/svg" xmlns:xlink="http://www.w3.org/1999/xlink" x="0px" y="0px"
	 width="64px" height="64px" viewBox="0 0 64 64" style="enable-background:new 0 0 64 64;" xml:space="preserve">
<rect style="fill:none;" width="64" height="64"/>
<g>
	<g>
		<path d="M32.5,62L5.6,47.7V17L31.6,2l26.8,14.9v30.9L32.5,62z M8.1,46.2l24.4,13l23.5-12.8V18.4L31.6,4.8
			L8.1,18.4V46.2z"/>
	</g>
	<g>
		<polygon points="32.3,31 6.3,18.2 7.4,16 32.3,28.3 56.6,16.6 57.7,18.7 		"/>
	</g>
	<polygon points="32,15 21,9.5 31.7,2 42.5,9.5 	"/>
	<g>
		
			<rect x="31.2" y="29.6" transform="matrix(1 -4.968598e-03 4.968598e-03 1 -0.2238 0.1615)" width="2.4" height="31"/>
	</g>
	<polygon points="46.2,52.6 46.2,41.1 56.3,36 56.3,46.5 	"/>
	<polygon points="7.5,36 17.8,41.2 17.8,52.6 7.5,46.5 	"/>
</g>
</svg>
