<?xml version="1.0" encoding="utf-8"?>
<!-- Generator: Adobe Illustrator 24.0.1, SVG Export Plug-In . SVG Version: 6.00 Build 0)  -->
<svg version="1.1" id="Layer_1" xmlns="http://www.w3.org/2000/svg" xmlns:xlink="http://www.w3.org/1999/xlink" x="0px" y="0px"
	 width="64px" height="64px" viewBox="0 0 64 64" style="enable-background:new 0 0 64 64;" xml:space="preserve">
<rect style="fill:none;" width="64" height="64"/>
<g>
	<path d="M36.6,59.5H5.8c-0.7,0-1.2-0.6-1.2-1.2V14.5h8.7c0.7,0,1.2-0.6,1.2-1.2V4.5h31.2
		c0.7,0,1.2,0.6,1.2,1.2v26.3c0.8-0.1,1.7-0.1,2.5,0V5.7c0-2.1-1.7-3.7-3.7-3.7H12.5c-0.7,0-1.3,0.3-1.8,0.7l-8,8
		C2.3,11.2,2,11.8,2,12.5v45.7C2,60.3,3.7,62,5.8,62h33.9c-0.2-0.1-0.5-0.3-0.7-0.5C38.1,60.9,37.3,60.3,36.6,59.5z"/>
	<path d="M49.5,34.6c-0.4,0-0.8-0.1-1.2-0.1c-0.4,0-0.8,0-1.2,0.1c-7.6,0.7-13.2,7.3-12.5,14.9
		c0.4,4.1,2.5,7.8,5.9,10.1c1.7,1.2,3.7,2,5.8,2.3c0.7,0.1,1.4,0.1,2.1,0.1C55.9,62,62,55.8,62,48.2C61.9,41.1,56.6,35.2,49.5,34.6z
		 M54.6,45.8l-7.1,7.5c-0.3,0.4-0.8,0.6-1.3,0.6c-0.5,0-1-0.3-1.4-0.6l-2.9-3c-0.7-0.8-0.6-2,0.1-2.6c0.7-0.7,1.9-0.6,2.6,0.1
		l1.5,1.6l5.8-6c0.8-0.6,2-0.5,2.6,0.3C55,44.2,55.1,45.1,54.6,45.8L54.6,45.8z"/>
	<rect x="19.9" y="33.5" width="13" height="5.5"/>
	<rect x="19.9" y="21" width="21.8" height="5.5"/>
	<rect x="19.9" y="46" width="10.3" height="5.5"/>
	<path d="M12.2,39.7c-1.9,0-3.4-1.5-3.4-3.4c0-1.9,1.5-3.4,3.4-3.4c1.9,0,3.4,1.5,3.4,3.4
		C15.6,38.1,14,39.7,12.2,39.7z"/>
	<path d="M12.2,27.2c-1.9,0-3.4-1.5-3.4-3.4c0-1.9,1.5-3.4,3.4-3.4c1.9,0,3.4,1.5,3.4,3.4
		C15.6,25.6,14,27.2,12.2,27.2z"/>
	<path d="M12.2,52.2c-1.9,0-3.4-1.5-3.4-3.4c0-1.9,1.5-3.4,3.4-3.4c1.9,0,3.4,1.5,3.4,3.4
		C15.6,50.6,14,52.2,12.2,52.2z"/>
</g>
</svg>
