<?xml version="1.0" encoding="utf-8"?>
<!-- Generator: Adobe Illustrator 24.0.1, SVG Export Plug-In . SVG Version: 6.00 Build 0)  -->
<svg version="1.1" id="Layer_1" xmlns="http://www.w3.org/2000/svg" xmlns:xlink="http://www.w3.org/1999/xlink" x="0px" y="0px"
	 width="24px" height="24px" viewBox="0 0 24 24" style="enable-background:new 0 0 24 24;" xml:space="preserve">
<path style="fill:none;" d="M0,0h24v24H0V0z"/>
<g>
	<path d="M11.8,22.6c-1.5-0.6-2.8-1.4-4-2.4c-2.4-2.1-3.9-4.6-4.5-7.7c-0.2-1-0.3-2-0.3-3C3,8.3,3,7,3,5.7c0-0.5,0.2-0.7,0.6-0.9
		c2.7-1.1,5.3-2.2,8-3.3c0.3-0.1,0.5-0.1,0.8,0c2.7,1.1,5.3,2.2,8,3.3C20.8,4.9,21,5.2,21,5.7c0,1.3,0,2.6,0,3.9
		c0,5.7-3.3,10.7-8.6,12.9c-0.1,0-0.2,0.1-0.2,0.1C12.1,22.6,11.9,22.6,11.8,22.6z M19.4,8.5C19.4,8.5,19.3,8.5,19.4,8.5
		c0-0.7-0.1-1.5,0-2.2c0-0.1,0-0.2-0.2-0.3c-2.3-1-4.7-1.9-7-2.9c-0.1,0-0.2,0-0.3,0c-2.3,1-4.7,1.9-7,2.9C4.7,6.1,4.7,6.2,4.7,6.3
		c0,1.1,0,2.2,0,3.3c0,0.8,0.1,1.6,0.2,2.5c0.9,4,3.2,6.9,6.9,8.7c0.1,0,0.2,0,0.3,0c1.8-0.8,3.3-2,4.6-3.6c1.4-1.8,2.2-3.7,2.5-5.9
		C19.3,10.4,19.3,9.4,19.4,8.5z"/>
</g>
<g>
	<path d="M12,13.9c-0.1,0-0.3,0-0.4-0.1c-0.3-0.1-0.5-0.3-0.5-0.7l-0.2-4.4c0-0.5,0.2-0.8,0.7-1c0.1,0,0.3-0.1,0.4-0.1
		c0.4,0,0.8,0.2,0.9,0.5C13,8.3,13,8.5,13,8.7c0,0.6,0,1.1,0,1.7v0.7l0,0v0.4c0,0.5,0,1,0,1.6c0,0.3-0.2,0.6-0.5,0.7
		C12.3,13.9,12.1,13.9,12,13.9z"/>
	<path d="M12,16.4c-0.3,0-0.6-0.1-0.8-0.3c-0.2-0.2-0.3-0.5-0.3-0.8c0-0.6,0.5-1.1,1.1-1.1s1.1,0.5,1.1,1.1S12.6,16.4,12,16.4
		L12,16.4z"/>
</g>
</svg>
