<?xml version="1.0" encoding="utf-8"?>
<!-- Generator: Adobe Illustrator 24.0.1, SVG Export Plug-In . SVG Version: 6.00 Build 0)  -->
<svg version="1.1" id="Layer_1" xmlns="http://www.w3.org/2000/svg" xmlns:xlink="http://www.w3.org/1999/xlink" x="0px" y="0px"
	 width="24px" height="24px" viewBox="0 0 24 24" style="enable-background:new 0 0 24 24;" xml:space="preserve">
<path style="fill:none;" d="M0,0h24v24H0V0z"/>
<g>
	<path d="M11.8,22.6c-1.5-0.6-2.8-1.4-4-2.4c-2.4-2.1-3.9-4.6-4.5-7.7c-0.2-1-0.3-2-0.3-3C3,8.3,3,7,3,5.7c0-0.5,0.2-0.7,0.6-0.9
		c2.7-1.1,5.3-2.2,8-3.3c0.3-0.1,0.5-0.1,0.8,0c2.7,1.1,5.3,2.2,8,3.3C20.8,4.9,21,5.2,21,5.7c0,1.3,0,2.6,0,3.9
		c0,5.7-3.3,10.7-8.6,12.9c-0.1,0-0.2,0.1-0.2,0.1C12.1,22.6,11.9,22.6,11.8,22.6z M19.4,8.5C19.4,8.5,19.3,8.5,19.4,8.5
		c0-0.7-0.1-1.5,0-2.2c0-0.1,0-0.2-0.2-0.3c-2.3-1-4.7-1.9-7-2.9c-0.1,0-0.2,0-0.3,0c-2.3,1-4.7,1.9-7,2.9C4.7,6.1,4.7,6.2,4.7,6.3
		c0,1.1,0,2.2,0,3.3c0,0.8,0.1,1.6,0.2,2.5c0.9,4,3.2,6.9,6.9,8.7c0.1,0,0.2,0,0.3,0c1.8-0.8,3.3-2,4.6-3.6c1.4-1.8,2.2-3.7,2.5-5.9
		C19.3,10.4,19.3,9.4,19.4,8.5z"/>
	<path d="M11.1,12.5c0.1-0.1,0.1-0.1,0.2-0.2c1.1-1.1,2.2-2.2,3.4-3.3c0.2-0.2,0.5-0.4,0.9-0.3c0.6,0.2,0.8,0.8,0.4,1.3
		c-0.1,0.1-0.1,0.1-0.2,0.2c-1.3,1.3-2.6,2.6-4,4c-0.5,0.5-0.9,0.5-1.4,0c-0.7-0.7-1.5-1.5-2.2-2.2c-0.2-0.2-0.3-0.5-0.2-0.9
		c0.1-0.3,0.3-0.5,0.6-0.6c0.3-0.1,0.6,0.1,0.8,0.3c0.5,0.5,1,1,1.5,1.5C10.9,12.3,11,12.4,11.1,12.5z"/>
</g>
</svg>
