<?xml version="1.0" encoding="utf-8"?>
<!-- Generator: Adobe Illustrator 25.0.0, SVG Export Plug-In . SVG Version: 6.00 Build 0)  -->
<svg version="1.1" id="Layer_1" xmlns="http://www.w3.org/2000/svg" xmlns:xlink="http://www.w3.org/1999/xlink" x="0px" y="0px"
	 viewBox="0 0 427 192" style="enable-background:new 0 0 427 192;" xml:space="preserve">
<style type="text/css">
	.st0{fill:#A6A6A8;}
	.st1{fill:#00AEEF;}
</style>
<g>
	<g>
		<path class="st0" d="M60.6,120.8h2.6c1.7,0,3.2-0.5,4.3-1.6c1.1-1.1,1.7-2.4,1.7-4.1c0-1.6-0.6-3-1.7-4.1
			c-1.1-1.1-2.6-1.6-4.3-1.6h-2.6V120.8z M63.2,105.9c2.9,0,5.4,0.9,7.3,2.6c1.9,1.7,2.8,3.9,2.8,6.5c0,2.6-1,4.8-2.9,6.6
			c-1.9,1.8-4.4,2.7-7.3,2.7h-6.4v-18.4H63.2z"/>
		<path class="st0" d="M79.2,109.3v5.9h3.5c1,0,1.8-0.3,2.4-0.8c0.6-0.5,0.9-1.3,0.9-2.1c0-0.9-0.3-1.6-0.9-2.1
			c-0.6-0.6-1.4-0.8-2.4-0.8H79.2z M75.2,105.9h8c2.1,0,3.7,0.6,5,1.7c1.3,1.1,1.9,2.6,1.9,4.5c0,1.8-0.7,3.4-2,4.5
			c-1.3,1.2-3,1.8-5.1,1.8h-3.8v5.8h-4V105.9z"/>
		<path class="st0" d="M135.4,119.2c1.1-1.1,1.6-2.5,1.6-4.1c0-1.6-0.5-3-1.6-4.1c-1.1-1.1-2.4-1.7-4-1.7c-1.6,0-3,0.6-4,1.7
			c-1.1,1.1-1.6,2.5-1.6,4.1c0,1.6,0.5,3,1.6,4.1c1.1,1.1,2.4,1.7,4,1.7C132.9,120.9,134.3,120.3,135.4,119.2 M138.2,108.4
			c1.8,1.8,2.7,4,2.7,6.7c0,2.7-0.9,4.9-2.8,6.7c-1.9,1.8-4.2,2.8-6.9,2.8c-2.7,0-5-0.9-6.8-2.7c-1.8-1.8-2.7-4-2.7-6.7
			c0-2.7,0.9-4.9,2.8-6.8c1.9-1.8,4.2-2.8,6.9-2.8C134.1,105.7,136.4,106.6,138.2,108.4"/>
		<path class="st0" d="M147.3,109.3v5.6h3.7c1,0,1.7-0.3,2.3-0.8c0.6-0.5,0.8-1.2,0.8-2c0-0.8-0.3-1.5-0.8-2
			c-0.6-0.5-1.3-0.8-2.3-0.8H147.3z M143.3,105.9h8.2c2,0,3.5,0.6,4.8,1.7c1.2,1.1,1.8,2.5,1.8,4.3c0,1.3-0.3,2.4-1,3.4
			c-0.7,1-1.6,1.7-2.8,2.1l4.6,6.9h-4.6l-4.1-6.3h-2.8v6.3h-4V105.9z"/>
		<polygon class="st0" points="161.1,124.3 161.1,105.9 165.1,105.9 165.1,120.7 174.1,120.7 174.1,124.3 		"/>
		<path class="st0" d="M180.1,120.8h2.6c1.7,0,3.2-0.5,4.3-1.6c1.1-1.1,1.7-2.4,1.7-4.1c0-1.6-0.6-3-1.7-4.1
			c-1.1-1.1-2.6-1.6-4.3-1.6h-2.6V120.8z M182.6,105.9c2.9,0,5.4,0.9,7.3,2.6c1.9,1.7,2.8,3.9,2.8,6.5c0,2.6-1,4.8-2.9,6.6
			c-1.9,1.8-4.4,2.7-7.3,2.7h-6.4v-18.4H182.6z"/>
		<polygon class="st0" points="117.6,105.9 113.7,118.2 113.7,118.3 109.8,105.9 105.8,105.9 107.3,110.6 104.7,118.8 100.7,105.9 
			96.2,105.9 102.4,124.3 102.4,124.3 106.4,124.3 106.5,124.3 109,116 111.6,124.3 112.1,124.3 115.6,124.3 115.6,124.3 
			121.8,105.9 		"/>
		<path class="st0" d="M36.2,119.9c0,1.5-0.7,2.7-2,3.5c-1.1,0.7-2.6,1-4.3,1h-7v-17.1h6.8c1.7,0,3.1,0.4,4.1,1.2
			c1.1,0.8,1.6,1.9,1.6,3.3c0,0.9-0.2,1.6-0.6,2.2c-0.4,0.6-1.1,1-1.9,1.4l-0.4,0.2l0.4,0.1c1.1,0.3,1.9,0.8,2.5,1.5
			C35.9,117.8,36.2,118.7,36.2,119.9 M31.7,112.1c0-0.6-0.2-1.1-0.6-1.5c-0.4-0.3-1-0.5-1.9-0.5h-2.7v3.9h2.8
			C30.9,114.1,31.7,113.5,31.7,112.1 M32.2,119.3c0-0.8-0.2-1.4-0.6-1.7c-0.4-0.4-1.2-0.5-2.4-0.5h-2.6v4.5h2.8
			c1.1,0,1.8-0.2,2.2-0.6C32,120.6,32.2,120,32.2,119.3"/>
		<polygon class="st0" points="49.8,112.6 43.9,129 40.4,129 41.8,124.6 37.3,112.6 41,112.6 43.7,120.9 46.3,112.6 		"/>
		<path class="st0" d="M60.6,120.8h2.6c1.7,0,3.2-0.5,4.3-1.6c1.1-1.1,1.7-2.4,1.7-4.1c0-1.6-0.6-3-1.7-4.1
			c-1.1-1.1-2.6-1.6-4.3-1.6h-2.6V120.8z M63.2,105.9c2.9,0,5.4,0.9,7.3,2.6c1.9,1.7,2.8,3.9,2.8,6.5c0,2.6-1,4.8-2.9,6.6
			c-1.9,1.8-4.4,2.7-7.3,2.7h-6.4v-18.4H63.2z"/>
		<path class="st0" d="M79.2,109.3v5.9h3.5c1,0,1.8-0.3,2.4-0.8c0.6-0.5,0.9-1.3,0.9-2.1c0-0.9-0.3-1.6-0.9-2.1
			c-0.6-0.6-1.4-0.8-2.4-0.8H79.2z M75.2,105.9h8c2.1,0,3.7,0.6,5,1.7c1.3,1.1,1.9,2.6,1.9,4.5c0,1.8-0.7,3.4-2,4.5
			c-1.3,1.2-3,1.8-5.1,1.8h-3.8v5.8h-4V105.9z"/>
		<path class="st0" d="M135.4,119.2c1.1-1.1,1.6-2.5,1.6-4.1c0-1.6-0.5-3-1.6-4.1c-1.1-1.1-2.4-1.7-4-1.7c-1.6,0-3,0.6-4,1.7
			c-1.1,1.1-1.6,2.5-1.6,4.1c0,1.6,0.5,3,1.6,4.1c1.1,1.1,2.4,1.7,4,1.7C132.9,120.9,134.3,120.3,135.4,119.2 M138.2,108.4
			c1.8,1.8,2.7,4,2.7,6.7c0,2.7-0.9,4.9-2.8,6.7c-1.9,1.8-4.2,2.8-6.9,2.8c-2.7,0-5-0.9-6.8-2.7c-1.8-1.8-2.7-4-2.7-6.7
			c0-2.7,0.9-4.9,2.8-6.8c1.9-1.8,4.2-2.8,6.9-2.8C134.1,105.7,136.4,106.6,138.2,108.4"/>
		<path class="st0" d="M147.3,109.3v5.6h3.7c1,0,1.7-0.3,2.3-0.8c0.6-0.5,0.8-1.2,0.8-2c0-0.8-0.3-1.5-0.8-2
			c-0.6-0.5-1.3-0.8-2.3-0.8H147.3z M143.3,105.9h8.2c2,0,3.5,0.6,4.8,1.7c1.2,1.1,1.8,2.5,1.8,4.3c0,1.3-0.3,2.4-1,3.4
			c-0.7,1-1.6,1.7-2.8,2.1l4.6,6.9h-4.6l-4.1-6.3h-2.8v6.3h-4V105.9z"/>
		<polygon class="st0" points="161.1,124.3 161.1,105.9 165.1,105.9 165.1,120.7 174.1,120.7 174.1,124.3 		"/>
		<path class="st0" d="M180.1,120.8h2.6c1.7,0,3.2-0.5,4.3-1.6c1.1-1.1,1.7-2.4,1.7-4.1c0-1.6-0.6-3-1.7-4.1
			c-1.1-1.1-2.6-1.6-4.3-1.6h-2.6V120.8z M182.6,105.9c2.9,0,5.4,0.9,7.3,2.6c1.9,1.7,2.8,3.9,2.8,6.5c0,2.6-1,4.8-2.9,6.6
			c-1.9,1.8-4.4,2.7-7.3,2.7h-6.4v-18.4H182.6z"/>
		<polygon class="st0" points="117.6,105.9 113.7,118.2 113.7,118.3 109.8,105.9 105.8,105.9 107.3,110.6 104.7,118.8 100.7,105.9 
			96.2,105.9 102.4,124.3 102.4,124.3 106.4,124.3 106.5,124.3 109,116 111.6,124.3 112.1,124.3 115.6,124.3 115.6,124.3 
			121.8,105.9 		"/>
		<path class="st0" d="M36.2,119.9c0,1.5-0.7,2.7-2,3.5c-1.1,0.7-2.6,1-4.3,1h-7v-17.1h6.8c1.7,0,3.1,0.4,4.1,1.2
			c1.1,0.8,1.6,1.9,1.6,3.3c0,0.9-0.2,1.6-0.6,2.2c-0.4,0.6-1.1,1-1.9,1.4l-0.4,0.2l0.4,0.1c1.1,0.3,1.9,0.8,2.5,1.5
			C35.9,117.8,36.2,118.7,36.2,119.9 M31.7,112.1c0-0.6-0.2-1.1-0.6-1.5c-0.4-0.3-1-0.5-1.9-0.5h-2.7v3.9h2.8
			C30.9,114.1,31.7,113.5,31.7,112.1 M32.2,119.3c0-0.8-0.2-1.4-0.6-1.7c-0.4-0.4-1.2-0.5-2.4-0.5h-2.6v4.5h2.8
			c1.1,0,1.8-0.2,2.2-0.6C32,120.6,32.2,120,32.2,119.3"/>
		<polygon class="st0" points="49.8,112.6 43.9,129 40.4,129 41.8,124.6 37.3,112.6 41,112.6 43.7,120.9 46.3,112.6 		"/>
	</g>
	<path d="M71.8,91.6l-7.5,9.7H45.5c-3.3,0-6.3-0.5-9-1.5c-2.8-1-5.2-2.3-7.2-4c-2-1.7-3.6-3.7-4.7-6.1c-1.1-2.3-1.7-4.9-1.7-7.6
		c0-2.7,0.6-5.2,1.7-7.5c1.1-2.3,2.7-4.2,4.7-5.8c2-1.6,4.4-2.9,7.2-3.8c2.8-0.9,5.8-1.3,9-1.3h26.4l-7.5,9.8H45.5
		c-1.6,0-3,0.2-4.4,0.7c-1.3,0.4-2.5,1.1-3.5,1.9c-1,0.8-1.7,1.8-2.3,2.9s-0.8,2.4-0.8,3.7s0.3,2.6,0.8,3.7c0.5,1.1,1.3,2.1,2.3,2.8
		c1,0.8,2.2,1.4,3.5,1.8c1.3,0.4,2.8,0.6,4.4,0.6H71.8z"/>
	<path d="M89.9,101.2l7-9.7h9.4c1.1,0,2.3,0,3.5,0c1.2,0,2.3,0,3.2,0.1c-0.5-0.7-1.1-1.5-1.8-2.6c-0.7-1-1.4-2-2-2.9l-6.7-9.9
		l-17.6,25H71.1l24.1-34c0.8-1.1,1.8-2.1,3-2.9c1.2-0.9,2.7-1.3,4.6-1.3c1.8,0,3.2,0.4,4.4,1.2c1.2,0.8,2.2,1.8,3,3l23.5,34H89.9z"
		/>
	<path d="M191.1,101.2h-15.6l-8.4-9.9h-17.9v9.9h-11.6V82h32.7c1.8,0,3.3-0.4,4.6-1.1c1.2-0.7,1.9-1.8,1.9-3.1
		c0-1.5-0.6-2.6-1.7-3.3c-1.1-0.7-2.7-1.1-4.7-1.1h-32.7l7.6-9.8h24.2c2.1,0,4.3,0.2,6.6,0.6c2.3,0.4,4.4,1.1,6.2,2.1
		c1.9,1,3.4,2.4,4.6,4.1c1.2,1.7,1.8,3.9,1.8,6.6c0,1.5-0.2,2.8-0.7,4.2c-0.4,1.3-1.1,2.5-1.9,3.5c-0.8,1-1.9,1.9-3.1,2.7
		c-1.2,0.7-2.6,1.2-4.1,1.5c0.6,0.5,1.3,1.1,2.1,1.9c0.8,0.7,1.8,1.8,3.1,3.1L191.1,101.2z"/>
	<path d="M221.5,77.7h19.6v23.5h-25.8c-3.3,0-6.3-0.5-9-1.5c-2.8-1-5.2-2.3-7.2-4c-2-1.7-3.6-3.7-4.7-6.1c-1.1-2.3-1.7-4.9-1.7-7.6
		c0-2.7,0.6-5.2,1.7-7.5c1.1-2.3,2.7-4.2,4.7-5.8c2-1.6,4.4-2.9,7.2-3.8c2.8-0.9,5.8-1.3,9-1.3h26.9l-7.5,9.8h-19.4
		c-1.6,0-3,0.2-4.4,0.7c-1.3,0.4-2.5,1.1-3.5,1.9c-1,0.8-1.8,1.8-2.3,2.9c-0.6,1.1-0.8,2.3-0.8,3.7s0.3,2.6,0.8,3.7
		c0.5,1.1,1.3,2.1,2.3,2.8c1,0.8,2.2,1.4,3.5,1.8c1.3,0.4,2.8,0.6,4.4,0.6h14.2v-5.5h-15L221.5,77.7z"/>
	<path d="M274.2,63c9.1,0,16,1.6,20.6,4.7c4.6,3.1,6.9,8,6.9,14.7c0,6.7-2.3,11.7-6.9,14.8c-4.6,3.1-11.4,4.7-20.6,4.7
		c-9.2,0-16.1-1.6-20.7-4.7c-4.6-3.1-6.8-8-6.8-14.8c0-6.7,2.3-11.6,6.9-14.7C258.1,64.6,265,63,274.2,63z M274.2,92.1
		c2.9,0,5.4-0.1,7.4-0.4c2-0.2,3.7-0.7,4.9-1.4c1.3-0.7,2.2-1.7,2.7-3c0.6-1.3,0.8-2.9,0.8-4.9c0-2-0.3-3.7-0.8-4.9
		c-0.6-1.3-1.5-2.2-2.7-2.9c-1.3-0.7-2.9-1.2-4.9-1.4c-2-0.2-4.5-0.4-7.4-0.4c-2.9,0-5.4,0.1-7.4,0.4c-2,0.2-3.7,0.7-4.9,1.4
		c-1.3,0.7-2.2,1.7-2.7,2.9c-0.6,1.3-0.8,2.9-0.8,4.9c0,2,0.3,3.7,0.8,4.9c0.6,1.3,1.5,2.2,2.7,3c1.3,0.7,2.9,1.2,4.9,1.4
		C268.8,91.9,271.2,92.1,274.2,92.1z"/>
	<path d="M390.1,78.6c4.6,0,8.1,0.9,10.5,2.6c2.4,1.7,3.6,4.3,3.6,7.7c0,1.9-0.3,3.6-0.9,5.2c-0.6,1.5-1.6,2.8-2.9,3.9
		c-1.3,1-3,1.9-5,2.4c-2,0.6-4.5,0.8-7.3,0.8h-35l7.5-9.7h28.4c1.4,0,2.4-0.2,3-0.6c0.6-0.4,1-1.1,1-2.1c0-1-0.3-1.7-1-2.1
		c-0.6-0.4-1.6-0.6-3-0.6h-20.5c-2.4,0-4.5-0.3-6.3-0.8c-1.8-0.5-3.2-1.3-4.4-2.2c-1.2-0.9-2-2.1-2.6-3.4c-0.6-1.3-0.8-2.8-0.8-4.4
		c0-1.8,0.3-3.4,0.9-4.8c0.6-1.4,1.6-2.7,2.9-3.7c1.3-1,3-1.8,5-2.4c2-0.6,4.5-0.8,7.3-0.8h32.7l-7.5,9.8h-26.1
		c-1.3,0-2.4,0.2-3,0.6c-0.7,0.4-1,1-1,2c0,1,0.3,1.7,1,2.1c0.7,0.4,1.7,0.6,3,0.6H390.1z"/>
	<g>
		<polygon class="st1" points="307.6,91.6 307.6,101.2 343.7,101.2 351.2,91.6 319.2,91.6 		"/>
		<polygon class="st1" points="307.6,77.9 307.6,86.4 342.4,86.4 349,77.9 		"/>
		<polygon class="st1" points="319.2,73.4 343.6,73.4 351.1,63.6 307.6,63.6 307.6,73.4 		"/>
	</g>
</g>
</svg>
